<?xml version="1.0" encoding="utf-8"?>
<!-- Generator: Adobe Illustrator 24.2.3, SVG Export Plug-In . SVG Version: 6.00 Build 0)  -->
<svg version="1.1" id="Layer_1" xmlns="http://www.w3.org/2000/svg" xmlns:xlink="http://www.w3.org/1999/xlink" x="0px" y="0px"
	 viewBox="0 0 338 66" style="enable-background:new 0 0 338 66;" xml:space="preserve">
<style type="text/css">
	.st0{fill:#010202;}
	.st1{fill:#E56768;}
</style>
<g>
	<path class="st0" d="M19.9,65.6c-5.3,0-9.7-1.6-13.3-4.9C3.1,57.4,1.2,53.2,1,48V4h18.8V41c0.2,2.6,0.8,4.7,2,6.3
		c1.2,1.6,3.1,2.3,5.9,2.3c2.8,0,5.2-0.9,7.2-2.8c2-1.9,3.6-4.5,4.7-7.7c1.1-3.3,1.7-7,1.7-11.1V4h18.8v58.7H43L41.6,52l0.3,1.2
		c-1.3,2.4-3,4.6-5.1,6.4c-2.1,1.9-4.5,3.3-7.3,4.4C26.6,65,23.4,65.6,19.9,65.6z"/>
	<path class="st0" d="M177.1,4l1.5,10.5l-0.3-0.9c2.1-3.7,5-6.7,8.7-8.9c3.8-2.3,8.4-3.4,13.8-3.4c5.6,0,10.2,1.6,13.9,4.9
		c3.7,3.3,5.6,7.5,5.7,12.7v43.9h-18.8V25.8c-0.1-2.6-0.8-4.7-2.1-6.2c-1.3-1.6-3.5-2.3-6.5-2.3c-2.9,0-5.4,0.9-7.5,2.8
		c-2.2,1.9-3.8,4.4-5,7.7c-1.2,3.2-1.7,6.9-1.7,11.2v23.9H160V4H177.1z"/>
	<path class="st0" d="M264.6,64.4c-5.5,0-10.4-1.1-14.8-3.3c-4.4-2.2-7.9-5.6-10.5-10.1c-2.6-4.6-3.9-10.4-3.9-17.5
		c0-6.6,1.3-12.4,4-17.2c2.7-4.8,6.2-8.6,10.6-11.2c4.4-2.6,9-4,14-4c5.8,0,10.2,1,13.2,2.9c3,1.9,5.5,4.1,7.5,6.4l-0.8,2.3l1.7-8.6
		H303v58.7h-18.8V50l1.5,4c-0.2,0-0.7,0.5-1.6,1.5c-0.9,1-2.2,2.2-4,3.6c-1.7,1.4-3.9,2.6-6.4,3.6C271.1,63.8,268.1,64.4,264.6,64.4
		z M269.9,49c2.2,0,4.3-0.3,6-1c1.8-0.7,3.4-1.7,4.7-3c1.3-1.3,2.5-2.9,3.5-4.9V25.8c-0.7-2-1.8-3.6-3.2-5c-1.4-1.4-3.1-2.5-5.1-3.2
		c-2-0.8-4.2-1.1-6.6-1.1c-2.7,0-5.2,0.7-7.5,2.1c-2.3,1.4-4.1,3.3-5.4,5.7c-1.3,2.4-2,5.2-2,8.3s0.7,6,2.1,8.5
		c1.4,2.5,3.3,4.5,5.7,5.9C264.6,48.3,267.2,49,269.9,49z"/>
	<rect x="84.5" y="27.6" class="st1" width="47.1" height="13.9"/>
	<circle class="st0" cx="328.2" cy="52" r="9.2"/>
</g>
</svg>
