<?xml version="1.0" encoding="utf-8"?>
<!-- Generator: Adobe Illustrator 24.2.3, SVG Export Plug-In . SVG Version: 6.00 Build 0)  -->
<svg version="1.1" id="Layer_1" xmlns="http://www.w3.org/2000/svg" xmlns:xlink="http://www.w3.org/1999/xlink" x="0px" y="0px"
	 viewBox="0 0 230 230" style="enable-background:new 0 0 230 230;" xml:space="preserve">
<style type="text/css">
	.st0{fill:#FFFFFF;}
</style>
<g>
	<g>
		<path class="st0" d="M17,88.6c0.3,0.5,0.5,1.2,0.5,2c0.1,0.8,0,1.5-0.1,2.2c-0.3,1.2-0.7,2.2-1.3,3s-1.4,1.4-2.4,1.7
			c-0.9,0.3-2,0.4-3.2,0.1c-1.2-0.2-2.1-0.7-2.9-1.4s-1.2-1.5-1.5-2.5c-0.3-1-0.3-1.9-0.1-2.9c0.2-1,0.5-1.8,0.9-2.4
			c0.4-0.7,0.9-1.2,1.4-1.6l1.8,2.1c-0.2,0.2-0.5,0.5-0.7,0.8C9.3,90,9.1,90.4,9,91c-0.1,0.5-0.1,0.9,0.1,1.4
			c0.2,0.4,0.4,0.8,0.8,1.1c0.4,0.3,0.8,0.5,1.4,0.6c0.5,0.1,1,0.1,1.5-0.1s0.9-0.4,1.2-0.8s0.6-0.9,0.7-1.4
			c0.1-0.4,0.1-0.7,0.1-1.1c0-0.3-0.1-0.6-0.3-0.9L17,88.6z"/>
		<path class="st0" d="M13,85.7c-1-0.4-1.9-0.9-2.6-1.7s-1.1-1.7-1.2-2.8s0-2.2,0.4-3.3c0.4-1.2,1-2.1,1.8-2.8
			c0.8-0.7,1.7-1.1,2.7-1.3c1-0.2,2-0.1,3.1,0.3c1,0.4,1.9,0.9,2.6,1.7c0.7,0.8,1.1,1.6,1.3,2.7c0.2,1,0.1,2.1-0.4,3.4
			c-0.4,1.1-1,2.1-1.7,2.8c-0.7,0.7-1.6,1.2-2.6,1.4C15.3,86.2,14.2,86.1,13,85.7z M14.2,82.4c0.5,0.2,1.1,0.2,1.6,0.2
			c0.5-0.1,1-0.2,1.3-0.5c0.4-0.3,0.7-0.7,0.8-1.1c0.2-0.5,0.2-1,0.1-1.5s-0.4-0.9-0.7-1.2c-0.4-0.4-0.8-0.6-1.3-0.8
			c-0.5-0.2-1.1-0.3-1.6-0.2c-0.5,0.1-0.9,0.2-1.3,0.5c-0.4,0.3-0.7,0.7-0.8,1.2c-0.2,0.5-0.2,0.9-0.1,1.4s0.4,0.9,0.7,1.2
			C13.2,81.9,13.6,82.2,14.2,82.4z"/>
		<path class="st0" d="M15,65.8l1.8,0.7h-0.2C16.2,65.8,16,65,16,64.3c0-0.8,0.2-1.5,0.6-2.3c0.3-0.5,0.6-0.9,1-1.3
			c0.4-0.3,0.8-0.5,1.2-0.6c0.4-0.1,0.9-0.1,1.4,0.1v0.1c-0.4-0.7-0.6-1.5-0.6-2.3s0.1-1.5,0.5-2.1c0.5-0.9,1.2-1.5,2.1-1.8
			c0.8-0.3,1.7-0.2,2.5,0.3l7.1,4l-1.7,3l-5.8-3.3c-0.4-0.2-0.8-0.3-1.1-0.4c-0.3,0-0.6,0.1-0.9,0.6s-0.3,1-0.2,1.5
			c0.1,0.5,0.4,1,0.9,1.5c0.4,0.5,0.9,0.9,1.5,1.2l3.9,2.2l-1.7,3l-5.8-3.3c-0.4-0.2-0.8-0.3-1.2-0.4c-0.3,0-0.6,0.2-0.9,0.6
			c-0.3,0.5-0.3,1-0.2,1.5c0.2,0.5,0.4,1,0.9,1.5c0.4,0.5,0.9,0.8,1.5,1.2l3.9,2.2l-1.7,3l-9.5-5.3L15,65.8z"/>
		<path class="st0" d="M27.3,46.5l1.6,1.1l-0.1-0.1c-0.3-0.8-0.3-1.6-0.2-2.3c0.1-0.8,0.5-1.5,1.1-2.2c0.4-0.4,0.8-0.8,1.2-1
			c0.4-0.2,0.9-0.4,1.3-0.4c0.5,0,0.9,0.1,1.4,0.3L33.5,42c-0.2-0.8-0.2-1.6-0.1-2.3c0.1-0.8,0.4-1.4,0.9-1.9
			c0.7-0.8,1.5-1.2,2.4-1.3s1.7,0.2,2.4,0.8l6.1,5.4l-2.3,2.6l-5-4.5c-0.4-0.3-0.7-0.5-1-0.6s-0.6,0-1,0.4s-0.5,0.9-0.5,1.5
			c0,0.5,0.2,1.1,0.5,1.6s0.7,1,1.2,1.5l3.3,3l-2.3,2.6l-5-4.5c-0.4-0.3-0.7-0.5-1.1-0.6c-0.3-0.1-0.7,0-1,0.4
			c-0.4,0.4-0.5,0.9-0.5,1.4s0.2,1.1,0.5,1.6s0.7,1,1.2,1.4l3.4,3l-2.3,2.6l-8.1-7.2L27.3,46.5z"/>
		<path class="st0" d="M50.5,39.2c-0.8,0.6-1.6,0.9-2.5,0.8c-0.9-0.1-1.7-0.5-2.3-1.2l-5-6.4l2.7-2.2l4.2,5.4c0.3,0.4,0.7,0.6,1,0.7
			c0.3,0.1,0.7,0,1.1-0.3c0.4-0.3,0.6-0.7,0.7-1.2c0.1-0.5,0-1.1-0.2-1.7c-0.2-0.6-0.6-1.2-1-1.8l-2.7-3.5l2.7-2.2l6.7,8.5l-2.5,2
			L52,34.7l0.2,0.1c0.1,0.5,0.1,1,0,1.5s-0.3,1-0.6,1.5C51.4,38.4,51,38.8,50.5,39.2z"/>
		<path class="st0" d="M55.8,21.5L57,23l-0.1-0.1c0-0.8,0.2-1.5,0.6-2.2s1-1.3,1.9-1.8s1.8-0.7,2.7-0.5s1.6,0.7,2.1,1.5l4.1,7
			l-3,1.7l-3.4-5.9c-0.3-0.4-0.6-0.7-0.9-0.8c-0.4-0.1-0.8-0.1-1.3,0.2c-0.5,0.3-0.8,0.6-0.9,1.1c-0.2,0.5-0.2,1.1-0.1,1.7
			c0.1,0.6,0.4,1.3,0.8,1.9l2.2,3.8l-3,1.7l-5.4-9.4L55.8,21.5z"/>
		<path class="st0" d="M65,12.2c-0.2-0.5-0.2-0.9,0-1.4s0.6-0.8,1-1s0.9-0.2,1.4-0.1c0.5,0.1,0.8,0.5,1,0.9c0.2,0.5,0.2,0.9,0,1.4
			s-0.6,0.8-1,1s-0.9,0.2-1.4,0.1C65.6,13,65.2,12.7,65,12.2z M66.7,15.7l3.2-1.4l4.4,9.9l-3.2,1.4L66.7,15.7z"/>
		<path class="st0" d="M85.6,19.1c-0.3,0.5-0.8,1-1.4,1.4c-0.6,0.5-1.2,0.8-1.9,1C81.1,22,80,22.1,79,22s-1.9-0.5-2.7-1.2
			c-0.8-0.6-1.3-1.5-1.7-2.7c-0.4-1.1-0.5-2.2-0.2-3.2c0.2-1,0.7-1.8,1.4-2.5c0.7-0.7,1.5-1.2,2.4-1.5s1.8-0.5,2.5-0.4
			c0.8,0,1.5,0.2,2.1,0.4L82,13.5c-0.3-0.1-0.6-0.2-1.1-0.2c-0.4-0.1-0.9,0-1.4,0.2s-0.8,0.4-1.1,0.8s-0.5,0.8-0.6,1.3s0,1,0.1,1.5
			c0.2,0.5,0.4,0.9,0.8,1.3c0.4,0.3,0.8,0.6,1.3,0.7s1,0.1,1.6-0.1c0.4-0.1,0.7-0.3,1-0.5s0.5-0.4,0.6-0.7L85.6,19.1z"/>
		<path class="st0" d="M92.5,18.9c-1,0.2-1.9,0.2-2.8-0.1c-0.9-0.2-1.6-0.7-2.3-1.5c-0.6-0.7-1.1-1.8-1.3-3C85.9,13.1,86,12,86.3,11
			s0.8-1.8,1.5-2.4c0.7-0.6,1.5-1,2.4-1.2c1.1-0.2,1.9-0.2,2.5,0.1c0.6,0.2,1.1,0.5,1.6,0.9l-0.1,0.4V7.2l3.2-0.6l2,10.7L96,18
			l-0.4-2.3l0.4,0.7c0,0-0.1,0.1-0.2,0.3c-0.1,0.2-0.3,0.5-0.6,0.8c-0.3,0.3-0.6,0.6-1,0.9C93.7,18.6,93.2,18.8,92.5,18.9z M93,15.9
			c0.4-0.1,0.8-0.2,1.1-0.4s0.6-0.4,0.8-0.7c0.2-0.3,0.4-0.6,0.5-1l-0.5-2.6c-0.2-0.3-0.5-0.6-0.8-0.8s-0.7-0.3-1-0.4
			s-0.8-0.1-1.2,0c-0.5,0.1-0.9,0.3-1.3,0.6s-0.6,0.7-0.8,1.2c-0.2,0.5-0.2,1-0.1,1.6s0.3,1.1,0.7,1.5c0.3,0.4,0.8,0.7,1.2,0.9
			C92,16,92.5,16,93,15.9z"/>
		<path class="st0" d="M102.5,1.4l3.5-0.2l0.3,4.7l2.6-0.2l0.2,2.7l-2.6,0.2l0.5,8.2l-3.5,0.2L103,8.8l-1.7,0.1l-0.2-2.7l1.7-0.1
			L102.5,1.4z"/>
		<path class="st0" d="M112.2,5.7l3.5,0.1l-0.2,10.9l-3.5-0.1L112.2,5.7z M112.2,1.9c0-0.5,0.2-0.9,0.6-1.3s0.9-0.5,1.3-0.5
			c0.5,0,0.9,0.2,1.3,0.5s0.6,0.8,0.6,1.3s-0.2,0.9-0.6,1.2s-0.8,0.5-1.3,0.5s-0.9-0.2-1.3-0.5C112.4,2.8,112.2,2.4,112.2,1.9z"/>
		<path class="st0" d="M118.4,11.1c0.1-1.1,0.5-2.1,1.1-2.9c0.6-0.8,1.4-1.4,2.4-1.8s2.1-0.5,3.3-0.4c1.2,0.2,2.3,0.5,3.1,1.1
			c0.8,0.6,1.5,1.4,1.8,2.3c0.4,0.9,0.5,1.9,0.4,3.1c-0.1,1.1-0.5,2.1-1.1,2.9s-1.4,1.4-2.3,1.8c-1,0.4-2.1,0.5-3.4,0.4
			c-1.2-0.1-2.2-0.5-3.1-1.1s-1.5-1.3-1.9-2.3C118.4,13.4,118.3,12.3,118.4,11.1z M121.9,11.5c-0.1,0.6,0,1.1,0.2,1.6
			s0.4,0.9,0.8,1.2s0.8,0.5,1.3,0.6s1,0,1.5-0.2c0.4-0.2,0.8-0.5,1-1c0.3-0.4,0.4-0.9,0.5-1.5s0-1.1-0.1-1.6
			c-0.2-0.5-0.4-0.9-0.8-1.2s-0.8-0.5-1.4-0.6c-0.5-0.1-1,0-1.4,0.2s-0.8,0.5-1.1,0.9C122.2,10.5,122,10.9,121.9,11.5z"/>
		<path class="st0" d="M138,8.9l-0.2,1.9v-0.2c0.5-0.6,1.2-0.9,2-1.2c0.8-0.2,1.7-0.2,2.6,0.1c1,0.3,1.7,0.8,2.2,1.5
			c0.5,0.8,0.6,1.6,0.4,2.5l-2.1,7.8l-3.4-0.9l1.8-6.6c0.1-0.5,0.1-0.9-0.1-1.2c-0.2-0.3-0.5-0.6-1-0.7c-0.5-0.1-1-0.1-1.5,0.1
			c-0.5,0.2-0.9,0.6-1.3,1.1c-0.4,0.5-0.6,1.2-0.8,1.9l-1.2,4.3l-3.4-0.9l2.8-10.5L138,8.9z"/>
		<path class="st0" d="M162.1,20.9c-0.3-0.2-0.7-0.3-1.1-0.3c-0.4,0-0.8,0-1.1,0.1c-0.4,0.1-0.7,0.3-1,0.5s-0.5,0.5-0.7,0.8
			c-0.3,0.4-0.4,0.9-0.3,1.4c0,0.5,0.2,0.9,0.5,1.3s0.7,0.7,1.1,1c0.5,0.3,0.9,0.4,1.3,0.5c0.4,0,0.8,0,1.1-0.1s0.7-0.3,0.9-0.5
			l1.1,2.8c-0.8,0.5-1.8,0.8-2.8,0.9c-1.1,0.1-2.3-0.2-3.6-1c-1-0.6-1.8-1.3-2.4-2.1c-0.6-0.9-0.9-1.8-1-2.8s0.2-2,0.7-2.9
			c0.4-0.7,0.9-1.3,1.6-1.7c0.7-0.4,1.4-0.7,2.2-0.9c0.8-0.1,1.6-0.2,2.4,0c0.8,0.1,1.6,0.4,2.3,0.7L162.1,20.9z M166.8,33.1
			c-0.2-0.1-0.5-0.3-0.9-0.5s-0.8-0.4-1.2-0.7c-0.4-0.2-0.9-0.5-1.5-0.8l-1.8-13.4c0-0.3-0.1-0.7-0.1-1.1c0-0.5,0-1,0.1-1.5
			s0.3-1,0.5-1.5c0.3-0.6,0.8-1.1,1.4-1.5c0.6-0.4,1.3-0.6,2.2-0.7c0.8,0,1.7,0.2,2.7,0.7c1,0.6,1.8,1.3,2.4,2.1
			c0.5,0.9,0.9,1.7,1,2.6l-2.8,1.2c-0.2-0.7-0.4-1.4-0.6-1.9c-0.3-0.5-0.6-0.9-1-1.1c-0.5-0.3-0.9-0.3-1.3-0.2
			c-0.4,0.2-0.7,0.4-0.9,0.8c-0.1,0.2-0.2,0.5-0.2,0.8s0,0.6,0,0.8c0,0.3,0,0.4,0,0.5L166.8,33.1z M168.2,21.1l2.9,1.6l-6.5,5.3
			l-1.5-2.6L168.2,21.1z"/>
		<path class="st0" d="M177.3,42.2c-0.7-0.7-1.2-1.5-1.5-2.4s-0.2-1.8,0-2.8s0.8-1.9,1.7-2.8c0.8-0.9,1.7-1.5,2.7-1.8s1.9-0.3,2.8,0
			c0.9,0.3,1.8,0.8,2.6,1.5c0.5,0.5,0.9,1,1.2,1.6s0.5,1.2,0.5,1.8l-0.7,0.8l7.3-7.7l2.5,2.4L183,47.1l-2.5-2.4l1.5-1.5l-0.3,0.7
			c-0.7,0-1.5-0.2-2.2-0.4C178.7,43.2,178,42.8,177.3,42.2z M180.1,40.8c0.3,0.3,0.7,0.6,1,0.7c0.3,0.2,0.7,0.2,1.1,0.3
			c0.4,0,0.7,0,1.1-0.2l1.8-1.9c0.2-0.4,0.2-0.7,0.2-1.1c0-0.4-0.1-0.7-0.3-1.1c-0.2-0.4-0.4-0.7-0.8-1c-0.4-0.4-0.8-0.6-1.3-0.7
			c-0.5-0.1-1-0.1-1.5,0s-0.9,0.4-1.3,0.8c-0.4,0.4-0.7,0.9-0.8,1.4s-0.1,1,0,1.5C179.5,40,179.8,40.5,180.1,40.8z"/>
		<path class="st0" d="M188.1,53.7c-0.8-1-1.3-2.1-1.5-3.1s-0.1-2,0.3-2.9c0.4-0.9,1-1.7,1.9-2.5c0.9-0.7,1.8-1.1,2.8-1.2
			c1-0.1,2.1,0.1,3.1,0.5s1.9,1.1,2.6,2c1,1.2,1.4,2.5,1.3,3.9c-0.1,1.3-0.7,2.7-1.9,4l-7.4-4.9l1-1.8l5.4,3.5l-0.7-0.4
			c0.3-0.4,0.4-0.8,0.4-1.3s-0.1-1-0.6-1.5c-0.3-0.4-0.7-0.7-1.1-0.8c-0.4-0.2-0.9-0.2-1.4-0.1c-0.5,0.1-0.9,0.4-1.4,0.7
			c-0.5,0.4-0.9,0.9-1.1,1.4c-0.2,0.5-0.3,1-0.2,1.4c0.1,0.5,0.3,0.9,0.6,1.3c0.2,0.3,0.5,0.5,0.8,0.7s0.7,0.4,1.1,0.5l-1.1,2.8
			c-0.6-0.2-1.2-0.6-1.8-1C188.9,54.6,188.4,54.2,188.1,53.7z"/>
		<path class="st0" d="M194.6,63c-0.5-0.8-0.8-1.6-0.9-2.4c-0.1-0.8-0.1-1.6,0.1-2.4l2.4,0.2c-0.1,0.7-0.2,1.3-0.1,1.8
			s0.2,0.9,0.4,1.2c0.1,0.2,0.3,0.4,0.5,0.6c0.2,0.2,0.3,0.3,0.5,0.3s0.3,0,0.5-0.1s0.4-0.4,0.4-0.6s0-0.6-0.1-0.9
			c-0.1-0.4-0.2-0.7-0.3-1.1c-0.3-1-0.2-1.9,0.1-2.6c0.3-0.7,0.7-1.2,1.3-1.6c0.5-0.3,1-0.5,1.6-0.5s1.3,0.1,1.9,0.5s1.2,1,1.8,1.8
			c0.5,0.8,0.8,1.5,1,2.1s0.2,1.3,0.2,2l-2.4-0.1c0-0.4,0-0.8,0-1.2c-0.1-0.4-0.2-0.8-0.3-1.1s-0.3-0.5-0.5-0.6s-0.4-0.2-0.5-0.2
			c-0.2,0-0.3,0-0.5,0.1c-0.3,0.2-0.4,0.4-0.4,0.7s0,0.7,0.2,1.1c0.1,0.4,0.2,0.8,0.3,1.2c0.1,0.5,0.2,1,0.1,1.5
			c0,0.5-0.2,0.9-0.4,1.3c-0.2,0.4-0.6,0.7-1,1c-0.6,0.3-1.2,0.5-1.9,0.5s-1.4-0.2-2-0.6C195.8,64.6,195.2,63.9,194.6,63z"/>
		<path class="st0" d="M208.1,64.4l1.5,3.1l-9.7,4.8l-1.5-3.1L208.1,64.4z M211.5,62.6c0.5-0.2,0.9-0.2,1.4,0s0.8,0.5,1,0.9
			s0.2,0.9,0.1,1.4c-0.1,0.5-0.4,0.9-0.9,1.1s-0.9,0.2-1.4,0s-0.8-0.5-1-0.9s-0.3-0.9-0.1-1.4C210.8,63.2,211.1,62.8,211.5,62.6z"/>
		<path class="st0" d="M198.2,82.2c-0.3-0.9-0.5-1.7-0.5-2.4c0-0.7,0.1-1.3,0.2-1.9c0.2-0.5,0.3-1,0.5-1.5l2.9,1.1
			c-0.2,0.5-0.4,1-0.5,1.6s-0.1,1.3,0.2,2c0.2,0.5,0.5,1,0.8,1.3c0.3,0.4,0.7,0.6,1.2,0.8c0.4,0.1,0.9,0.1,1.4-0.1l2.2-0.8l-0.5,0.3
			c-0.6-0.1-1.2-0.3-1.9-0.9c-0.6-0.5-1.1-1.3-1.5-2.4c-0.3-0.9-0.4-1.9-0.2-2.8c0.2-1,0.6-1.8,1.3-2.6c0.6-0.8,1.5-1.3,2.5-1.7
			c1.1-0.4,2.1-0.5,3.1-0.3s1.9,0.6,2.7,1.2s1.3,1.4,1.6,2.3s0.5,1.7,0.4,2.4c0,0.7-0.2,1.3-0.4,1.8h-0.3l1.2-0.1l1.1,3l-10.2,3.7
			c-1,0.4-2,0.4-3,0.1s-1.9-0.8-2.6-1.6C199.2,84.3,198.6,83.3,198.2,82.2z M207.5,75.6c-0.5,0.2-1,0.5-1.3,0.9s-0.6,0.9-0.7,1.4
			c-0.1,0.5,0,1,0.1,1.6c0.2,0.5,0.4,0.8,0.6,1.1c0.2,0.3,0.5,0.6,0.9,0.7c0.3,0.2,0.7,0.3,1.1,0.4l2.5-0.9c0.3-0.3,0.5-0.6,0.6-0.9
			c0.1-0.4,0.2-0.8,0.2-1.2c0-0.4-0.1-0.8-0.2-1.3c-0.2-0.5-0.5-1-0.9-1.3s-0.9-0.6-1.4-0.7C208.6,75.4,208.1,75.4,207.5,75.6z"/>
		<path class="st0" d="M217.6,90.3l-1.8,0.6l0.2-0.1c0.7,0.2,1.4,0.7,1.9,1.3c0.5,0.6,0.9,1.4,1.1,2.4c0.2,1,0.1,1.9-0.4,2.7
			s-1.2,1.3-2.1,1.5l-8,1.6l-0.7-3.4l6.7-1.3c0.5-0.1,0.8-0.3,1.1-0.6c0.2-0.3,0.3-0.7,0.2-1.3c-0.1-0.5-0.4-0.9-0.8-1.3
			c-0.4-0.3-0.9-0.5-1.6-0.6c-0.6-0.1-1.3-0.1-2.1,0.1l-4.3,0.9l-0.7-3.4l10.7-2.1L217.6,90.3z"/>
	</g>
	<g>
		<path class="st0" d="M201.2,151.8c0.4-0.9,1-1.7,1.7-2.2c0.8-0.5,1.6-0.8,2.6-0.9c1-0.1,2.1,0.2,3.2,0.7c1.1,0.5,2,1.1,2.6,2
			c0.6,0.8,0.9,1.7,1,2.7s-0.1,2-0.6,3c-0.3,0.6-0.7,1.2-1.1,1.7c-0.5,0.5-1,0.9-1.6,1.1l-1-0.4l9.7,4.3l-1.4,3.2l-17.9-7.9l1.4-3.2
			l1.9,0.9l-0.8-0.1c-0.2-0.7-0.3-1.4-0.3-2.2C200.6,153.4,200.8,152.6,201.2,151.8z M203.4,154c-0.2,0.4-0.3,0.8-0.3,1.2
			s0,0.7,0.1,1.1c0.1,0.3,0.3,0.7,0.5,1l2.4,1.1c0.4,0,0.8,0,1.1-0.2c0.3-0.1,0.7-0.4,0.9-0.7c0.3-0.3,0.5-0.7,0.7-1.1
			c0.2-0.5,0.3-1,0.2-1.5s-0.2-1-0.5-1.4s-0.7-0.8-1.2-1s-1.1-0.3-1.6-0.3c-0.5,0.1-1,0.2-1.4,0.5
			C203.9,153.1,203.6,153.5,203.4,154z"/>
		<path class="st0" d="M193.9,165.7c0.7-1.1,1.5-1.9,2.4-2.5c0.9-0.5,1.9-0.7,2.9-0.7c1,0.1,2,0.4,3,1c0.9,0.6,1.6,1.3,2.1,2.3
			c0.4,0.9,0.6,2,0.6,3c-0.1,1.1-0.4,2.1-1,3.1c-0.8,1.3-1.9,2.2-3.2,2.5c-1.3,0.4-2.7,0.2-4.4-0.4l2.2-8.6l2,0.4l-1.5,6.3l0.1-0.8
			c0.4,0.1,0.9,0.1,1.3,0c0.5-0.1,0.9-0.5,1.2-1c0.3-0.4,0.4-0.9,0.4-1.3c0-0.5-0.1-0.9-0.4-1.3c-0.3-0.4-0.6-0.8-1.2-1.1
			c-0.6-0.4-1.1-0.6-1.6-0.6s-1,0.1-1.4,0.3s-0.8,0.6-1.1,1c-0.2,0.3-0.3,0.7-0.4,1c-0.1,0.4-0.1,0.8-0.1,1.2l-3-0.1
			c0-0.7,0.1-1.3,0.3-2C193.3,166.8,193.6,166.2,193.9,165.7z"/>
		<path class="st0" d="M187.3,175c0.6-0.7,1.2-1.2,1.9-1.6c0.7-0.4,1.5-0.6,2.3-0.7l0.6,2.3c-0.7,0.1-1.3,0.3-1.7,0.5
			c-0.5,0.2-0.8,0.5-1,0.8c-0.2,0.2-0.3,0.4-0.4,0.6c-0.1,0.2-0.1,0.4-0.1,0.6c0,0.2,0.1,0.3,0.3,0.5s0.5,0.2,0.7,0.2
			s0.6-0.2,0.9-0.4c0.3-0.2,0.6-0.4,1-0.7c0.9-0.6,1.7-0.8,2.4-0.8s1.4,0.3,1.9,0.7c0.4,0.3,0.8,0.8,1,1.4c0.2,0.6,0.3,1.2,0.2,2
			c-0.1,0.7-0.5,1.5-1.1,2.3c-0.6,0.7-1.1,1.2-1.7,1.6c-0.5,0.4-1.1,0.6-1.8,0.8l-0.7-2.3c0.4-0.1,0.8-0.2,1.2-0.4s0.7-0.4,0.9-0.7
			c0.2-0.2,0.3-0.4,0.4-0.6c0.1-0.2,0.1-0.4,0.1-0.6c0-0.2-0.1-0.3-0.2-0.4c-0.2-0.2-0.5-0.3-0.8-0.2s-0.6,0.2-0.9,0.5
			c-0.3,0.2-0.7,0.5-1,0.7c-0.5,0.3-0.9,0.5-1.4,0.6s-0.9,0.1-1.3,0s-0.9-0.3-1.3-0.6c-0.5-0.4-0.9-0.9-1.1-1.6
			c-0.2-0.6-0.3-1.3-0.1-2.1C186.2,176.6,186.6,175.8,187.3,175z"/>
		<path class="st0" d="M190.5,188.2l-2.4,2.5l-7.8-7.6l2.4-2.5L190.5,188.2z M193.3,190.8c0.4,0.4,0.5,0.8,0.5,1.3s-0.2,0.9-0.6,1.3
			c-0.3,0.3-0.7,0.5-1.3,0.6c-0.5,0-0.9-0.1-1.3-0.5c-0.4-0.4-0.5-0.8-0.5-1.3s0.2-0.9,0.5-1.3c0.3-0.3,0.7-0.5,1.3-0.6
			C192.5,190.3,192.9,190.5,193.3,190.8z"/>
		<path class="st0" d="M170.4,184.6c0.8-0.6,1.5-1,2.1-1.3c0.7-0.2,1.3-0.4,1.9-0.4c0.6,0,1.1-0.1,1.6-0.1l-0.1,3.1
			c-0.5,0-1.1,0-1.7,0.1c-0.6,0.1-1.2,0.4-1.9,0.9c-0.4,0.3-0.8,0.7-1,1.2c-0.2,0.4-0.4,0.9-0.4,1.4s0.2,0.9,0.5,1.3l1.5,1.9
			l-0.5-0.4c-0.1-0.6-0.1-1.3,0.2-2.1s0.8-1.5,1.7-2.2c0.8-0.6,1.6-1,2.6-1.1s1.9,0,2.9,0.3c0.9,0.4,1.8,1,2.5,1.8
			c0.7,0.9,1.2,1.8,1.3,2.9c0.1,1,0.1,2-0.3,2.9c-0.3,0.9-0.9,1.7-1.6,2.3s-1.5,1-2.2,1.2s-1.3,0.3-1.8,0.2l-0.1-0.3l0.5,1.2l-2.5,2
			l-6.9-8.4c-0.7-0.8-1-1.7-1.1-2.8c-0.1-1,0.2-2,0.6-3C168.7,186.3,169.4,185.4,170.4,184.6z M179.6,191.4c-0.4-0.5-0.8-0.8-1.3-1
			s-1-0.2-1.5-0.2c-0.5,0.1-1,0.3-1.4,0.7c-0.4,0.3-0.7,0.6-0.9,1c-0.2,0.3-0.4,0.7-0.4,1.1c-0.1,0.4-0.1,0.8,0,1.2l1.7,2.1
			c0.3,0.2,0.7,0.3,1.1,0.3c0.4,0,0.8-0.1,1.2-0.2c0.4-0.1,0.8-0.4,1.1-0.7c0.4-0.4,0.8-0.8,0.9-1.3c0.2-0.5,0.2-1,0.2-1.5
			C180.2,192.3,180,191.8,179.6,191.4z"/>
		<path class="st0" d="M169.1,205.6l-1.2-1.5l0.1,0.1c0,0.8-0.2,1.5-0.6,2.2s-1,1.3-1.9,1.8s-1.8,0.7-2.7,0.5s-1.6-0.7-2.1-1.5
			l-4.1-7l3-1.8l3.5,5.9c0.3,0.4,0.6,0.7,0.9,0.8c0.4,0.1,0.8,0,1.3-0.2c0.5-0.3,0.8-0.7,0.9-1.2c0.2-0.5,0.2-1.1,0.1-1.7
			s-0.4-1.3-0.8-1.9l-2.2-3.8l3-1.8l5.5,9.4L169.1,205.6z"/>
		<path class="st0" d="M148.9,203.4c1.2-0.5,2.4-0.7,3.4-0.6c1,0.1,2,0.5,2.7,1.1c0.8,0.6,1.4,1.5,1.8,2.5c0.4,1,0.5,2,0.4,3.1
			c-0.2,1-0.6,2-1.3,2.8s-1.5,1.5-2.6,1.9c-1.4,0.6-2.8,0.7-4.1,0.2s-2.4-1.4-3.3-2.9l6.8-5.7l1.4,1.4l-4.9,4.3l0.5-0.6
			c0.3,0.3,0.6,0.6,1.1,0.8c0.4,0.2,1,0.1,1.6-0.1c0.5-0.2,0.8-0.5,1.1-0.9s0.4-0.8,0.4-1.3s-0.1-1-0.3-1.6c-0.3-0.6-0.6-1.1-1-1.4
			c-0.4-0.3-0.9-0.5-1.3-0.6c-0.5,0-1,0-1.5,0.2c-0.4,0.1-0.7,0.3-0.9,0.6c-0.3,0.3-0.5,0.6-0.8,0.9l-2.4-1.8c0.4-0.5,0.9-1,1.4-1.5
			C147.8,204,148.3,203.7,148.9,203.4z"/>
		<path class="st0" d="M141.5,217.8l-1.1-2.8l0.2,0.4c-0.1,0.7-0.4,1.4-0.8,1.9c-0.4,0.6-0.8,1.1-1.3,1.5s-0.8,0.6-1.1,0.7l-0.8-3.4
			c0.8-0.1,1.4-0.4,1.9-1c0.5-0.5,0.8-1.1,0.9-1.8c0.1-0.7,0.1-1.3,0-1.9l-1.2-4.1l3.3-0.9l3,10.5L141.5,217.8z"/>
		<path class="st0" d="M108.7,211.4c0.2,0,0.6,0,1-0.1s0.9-0.1,1.4-0.1s1.1-0.1,1.7-0.1l8.6,10.4c0.2,0.2,0.4,0.5,0.7,0.9
			c0.3,0.4,0.5,0.8,0.7,1.3s0.3,1,0.4,1.5c0,0.7-0.1,1.3-0.4,2s-0.8,1.2-1.5,1.7s-1.6,0.7-2.6,0.8c-1.2,0.1-2.2-0.1-3.1-0.5
			s-1.7-1-2.2-1.6l1.7-2.5c0.5,0.5,1.1,1,1.6,1.3s1,0.4,1.4,0.4c0.6,0,1-0.2,1.2-0.6c0.2-0.3,0.3-0.7,0.3-1.1c0-0.2-0.1-0.5-0.2-0.7
			c-0.1-0.3-0.3-0.5-0.4-0.7s-0.2-0.4-0.3-0.4L108.7,211.4z M114,222.3l-3.3,0.2l2.7-7.9l2.7,1.4L114,222.3z M119.3,219.2
			c0.4,0,0.8-0.1,1.1-0.3c0.3-0.2,0.6-0.4,0.9-0.7s0.4-0.6,0.6-0.9c0.1-0.3,0.2-0.7,0.2-1.1c0-0.5-0.2-1-0.5-1.3
			c-0.3-0.4-0.6-0.7-1.1-0.8s-1-0.3-1.5-0.2c-0.5,0-1,0.1-1.3,0.3s-0.6,0.4-0.9,0.7c-0.2,0.3-0.4,0.6-0.5,0.9l-2.4-1.8
			c0.4-0.9,1-1.6,1.9-2.3s2.1-1,3.5-1.1c1.1-0.1,2.2,0.1,3.1,0.5c1,0.4,1.7,1,2.3,1.9c0.6,0.8,0.9,1.8,1,2.9c0,0.8-0.1,1.6-0.4,2.3
			s-0.8,1.3-1.4,1.9c-0.6,0.5-1.3,1-2,1.3c-0.8,0.3-1.5,0.6-2.4,0.6L119.3,219.2z"/>
		<path class="st0" d="M92.6,208.8c0.6,0.1,1.2,0.4,1.8,0.7c0.6,0.4,1,0.8,1.3,1.3l-0.3,1l1.4-7.2l3.4,0.7l-3.1,16l-2.9-0.6
			l-0.1-2.2l0.1,0.8c-0.6,0.4-1.3,0.6-2.1,0.8c-0.7,0.2-1.6,0.2-2.5,0c-1-0.2-1.8-0.6-2.5-1.2c-0.7-0.6-1.2-1.4-1.5-2.4
			s-0.3-2-0.1-3.3c0.2-1.2,0.7-2.2,1.4-2.9c0.7-0.7,1.5-1.3,2.5-1.5C90.5,208.6,91.5,208.6,92.6,208.8z M92.8,211.6
			c-0.6-0.1-1.1-0.1-1.6,0.1c-0.5,0.2-1,0.4-1.3,0.8c-0.4,0.4-0.6,0.9-0.7,1.4c-0.1,0.6-0.1,1.2,0.1,1.6c0.2,0.5,0.4,0.9,0.8,1.3
			s0.8,0.6,1.4,0.7c0.5,0.1,0.9,0.1,1.2,0.1c0.4-0.1,0.7-0.2,1-0.4s0.6-0.4,0.9-0.8l0.5-2.6c-0.1-0.4-0.2-0.7-0.4-1
			c-0.2-0.3-0.5-0.6-0.8-0.8C93.6,211.8,93.2,211.7,92.8,211.6z"/>
		<path class="st0" d="M81.6,205.6c0.9,0.3,1.6,0.9,2,1.7s0.5,1.6,0.2,2.6l-2.7,7.7l-3.3-1.2l2.3-6.4c0.1-0.5,0.1-0.9,0-1.2
			s-0.4-0.6-0.9-0.8s-1-0.2-1.4,0.1c-0.5,0.2-0.9,0.6-1.3,1.1s-0.7,1.1-1,1.8l-1.5,4.2l-3.3-1.2l3.6-10.3l3,1l-0.4,2v-0.2
			c0.4-0.3,0.8-0.6,1.3-0.8s1-0.3,1.5-0.3C80.4,205.3,81,205.4,81.6,205.6z"/>
		<path class="st0" d="M65.5,198.9c0.8,0.4,1.4,0.9,1.8,1.5s0.7,1.2,0.9,1.8l-0.6,0.5l1-1.9l3.1,1.6l-9.2,17.3l-3.1-1.6l5-9.4
			l-0.5,1c-0.6,0.1-1.2,0.1-1.9,0s-1.5-0.4-2.3-0.8c-0.8-0.4-1.5-1-2-1.8s-0.7-1.6-0.7-2.6s0.3-2,0.8-3.1c0.6-1.1,1.3-1.9,2.2-2.4
			s1.8-0.8,2.8-0.9C63.7,198.2,64.6,198.4,65.5,198.9z M64.8,201.8c-0.5-0.2-0.9-0.3-1.4-0.3s-1,0.2-1.4,0.5
			c-0.5,0.3-0.8,0.7-1.1,1.2s-0.4,1-0.4,1.5s0.2,1,0.4,1.4c0.3,0.4,0.6,0.8,1.1,1c0.4,0.2,0.8,0.3,1.2,0.4c0.4,0.1,0.8,0,1.2-0.1
			s0.7-0.3,1-0.5l1.2-2.4c0-0.4-0.1-0.8-0.2-1.1s-0.3-0.7-0.6-0.9C65.5,202.3,65.2,202,64.8,201.8z"/>
		<path class="st0" d="M47.5,211.3l-2.9-2l11.1-16.2l2.9,2L47.5,211.3z"/>
		<path class="st0" d="M44,202.7c-0.3,0.4-0.7,0.6-1.3,0.6c-0.5,0-1-0.1-1.3-0.4c-0.4-0.3-0.6-0.7-0.7-1.2c-0.1-0.5,0-1,0.3-1.4
			s0.7-0.6,1.2-0.6s0.9,0.1,1.3,0.4c0.4,0.3,0.6,0.7,0.7,1.2C44.4,201.9,44.3,202.3,44,202.7z M46.3,199.7l-2.7-2.2l6.7-8.5l2.7,2.2
			L46.3,199.7z"/>
		<path class="st0" d="M45.4,184.4c0.6,0.6,1.1,1.3,1.5,2.1c0.3,0.8,0.5,1.5,0.5,2.3l-2.4,0.4c-0.1-0.7-0.2-1.3-0.4-1.8
			s-0.4-0.8-0.7-1.1c-0.2-0.2-0.4-0.3-0.6-0.5c-0.2-0.1-0.4-0.2-0.6-0.2c-0.2,0-0.3,0.1-0.5,0.2c-0.2,0.2-0.3,0.4-0.2,0.7
			s0.2,0.6,0.3,0.9c0.2,0.3,0.4,0.7,0.6,1c0.5,0.9,0.7,1.7,0.6,2.5c-0.1,0.7-0.4,1.4-0.9,1.9c-0.4,0.4-0.9,0.7-1.5,0.9
			s-1.2,0.2-2,0.1s-1.4-0.6-2.2-1.3c-0.7-0.6-1.2-1.2-1.5-1.8s-0.6-1.2-0.7-1.9l2.4-0.6c0.1,0.4,0.2,0.8,0.3,1.2
			c0.2,0.4,0.4,0.7,0.6,1c0.2,0.2,0.4,0.4,0.6,0.5c0.2,0.1,0.4,0.1,0.6,0.1c0.2,0,0.3-0.1,0.4-0.2c0.2-0.2,0.3-0.5,0.3-0.8
			c-0.1-0.3-0.2-0.6-0.4-1c-0.2-0.3-0.4-0.7-0.6-1.1c-0.3-0.5-0.4-1-0.5-1.4c-0.1-0.5-0.1-0.9,0.1-1.3c0.1-0.4,0.4-0.8,0.7-1.2
			c0.5-0.5,1-0.8,1.7-1s1.4-0.2,2.1,0C43.9,183.2,44.7,183.6,45.4,184.4z"/>
		<path class="st0" d="M40.2,179.6L25,192l-2.2-2.6l8.5-6.9l-0.3,0.3c-0.8,0.1-1.5,0.1-2.3-0.2s-1.5-0.8-2.1-1.6s-1-1.7-0.9-2.6
			c0-0.9,0.4-1.7,1.2-2.3l6.3-5.1l2.2,2.7l-5.3,4.3c-0.4,0.3-0.6,0.7-0.7,1c-0.1,0.4,0.1,0.8,0.4,1.2s0.8,0.7,1.3,0.8s1.1,0,1.7-0.2
			s1.2-0.6,1.8-1.1l3.4-2.8L40.2,179.6z"/>
		<path class="st0" d="M28.9,163.7c0.7,1.1,1.1,2.2,1.1,3.3c0,1-0.2,2-0.7,2.9s-1.2,1.6-2.2,2.2c-0.9,0.6-1.9,0.8-3,0.8
			c-1,0-2-0.3-3-0.9c-0.9-0.5-1.7-1.3-2.3-2.3c-0.8-1.3-1.1-2.7-0.8-4c0.3-1.3,1-2.6,2.3-3.7l6.7,5.9l-1.2,1.6l-4.9-4.2l0.6,0.5
			c-0.3,0.3-0.5,0.7-0.6,1.2s0,1,0.4,1.6c0.3,0.4,0.6,0.8,1,1s0.9,0.3,1.3,0.2c0.5,0,1-0.2,1.5-0.5c0.6-0.4,1-0.8,1.3-1.2
			s0.4-0.9,0.4-1.4s-0.2-1-0.4-1.4c-0.2-0.3-0.4-0.6-0.7-0.8c-0.3-0.2-0.6-0.4-1-0.6l1.4-2.7c0.6,0.3,1.1,0.7,1.7,1.2
			C28.2,162.7,28.6,163.2,28.9,163.7z"/>
		<path class="st0" d="M13.7,158.6l2.6-1.5l-0.4,0.3c-0.7,0-1.4-0.2-2-0.5s-1.2-0.7-1.6-1c-0.4-0.4-0.7-0.7-0.8-1l3.2-1.3
			c0.2,0.8,0.7,1.4,1.2,1.7c0.5,0.3,1.2,0.6,1.9,0.6s1.3-0.1,1.9-0.3l3.9-1.8l1.4,3.1l-9.9,4.5L13.7,158.6z"/>
	</g>
	<circle class="st0" cx="112.1" cy="113.8" r="13.3"/>
	<rect x="209" y="122.3" class="st0" width="15" height="2"/>
	<rect x="6" y="122.3" class="st0" width="15" height="2"/>
</g>
</svg>
