<svg id="Layer_1" data-name="Layer 1" xmlns="http://www.w3.org/2000/svg" viewBox="0 0 17.38 19"><defs><style>.cls-1{fill:#222;}</style></defs><path class="cls-1" d="M14.11,10.42l2.44,2.39,0,0,2-1.13a1.47,1.47,0,0,0,0-2.56L16.57,8l0,0Z" transform="translate(-1.91 -0.92)"/><polygon class="cls-1" points="3 18.52 9.02 15.12 13.57 12.52 11.35 10.34 3 18.52"/><polygon class="cls-1" points="13.57 6.48 9.02 3.88 3 0.48 11.35 8.66 13.57 6.48"/><path class="cls-1" d="M12.4,10.42,2.73.93h0a1.48,1.48,0,0,0-.82,1.32V18.6a1.48,1.48,0,0,0,.82,1.32h0Z" transform="translate(-1.91 -0.92)"/></svg>