<svg id="Layer_1" data-name="Layer 1" xmlns="http://www.w3.org/2000/svg" viewBox="0 0 16.29 20"><defs><style>.cls-1{fill:#212121;}</style></defs><path class="cls-1" d="M15.65,11a4.51,4.51,0,0,1,2.16-3.8,4.71,4.71,0,0,0-3.66-2c-1.56-.16-3,.92-3.83.92s-2-.89-3.3-.87A4.92,4.92,0,0,0,2.88,7.79c-1.76,3.06-.45,7.59,1.27,10.08C5,19.08,6,20.44,7.31,20.4s1.74-.82,3.27-.82,2,.82,3.31.8,2.22-1.25,3.06-2.46a11,11,0,0,0,1.38-2.85A4.4,4.4,0,0,1,15.65,11Z" transform="translate(-2.05 -0.4)"/><path class="cls-1" d="M13.13,3.59a4.39,4.39,0,0,0,1-3.19,4.47,4.47,0,0,0-2.94,1.51A4.21,4.21,0,0,0,10.16,5,3.73,3.73,0,0,0,13.13,3.59Z" transform="translate(-2.05 -0.4)"/></svg>