<?xml version="1.0" encoding="utf-8"?>
<!-- Generator: Adobe Illustrator 24.2.3, SVG Export Plug-In . SVG Version: 6.00 Build 0)  -->
<svg version="1.1" id="Layer_1" xmlns="http://www.w3.org/2000/svg" xmlns:xlink="http://www.w3.org/1999/xlink" x="0px" y="0px"
	 viewBox="0 0 244 50" style="enable-background:new 0 0 244 50;" xml:space="preserve">
<style type="text/css">
	.st0{fill:#BE1E2D;}
	.st1{fill:#1B75BB;}
	.st2{fill:#040707;}
	.st3{fill:#EC1C24;}
</style>
<path class="st0" d="M49.96,35.42h16.33l-1.77-4.3l0,0c-0.53-1.46-2.2-2.65-3.74-2.66h-7.99"/>
<path class="st1" d="M148.59,35.42h-16.33l1.77-4.3l0,0c0.53-1.46,2.2-2.65,3.74-2.66h7.99"/>
<path class="st2" d="M112.41,0.8l-11.98,18.25L90.54,3.73c-0.64-0.98-1.44-1.74-2.39-2.24c-0.97-0.51-2.23-0.75-3.77-0.75H73.75
	l-0.07-0.01c1.62,0.71,2.85,1.58,3.94,2.53s2.07,2.72,3.27,4.53l13.1,19.55v19.78c0.08,1.35,1.21,2.42,2.63,2.5h7.98V27.34
	L122.31,0.8H112.41z"/>
<path class="st2" d="M36.48,8.6l-0.34,0.16L36.48,8.6c-0.82-1.74-1.99-3.2-3.49-4.36c-1.5-1.17-3.28-2.03-5.34-2.59
	C25.6,1.08,23.33,0.8,20.86,0.8H0.33c1.23,0.69,2.04,1.54,2.46,2.54C3.24,4.4,3.31,6.36,3.31,7.77v39.49
	c0.16,1.3,1.28,2.31,2.67,2.35h8.01V29.58h1.45c2.5,0,5.04-0.11,7.63-0.32c2.62-0.22,5.01-0.8,7.16-1.76
	c2.17-0.96,3.97-2.45,5.37-4.45c1.42-2.03,2.11-4.83,2.11-8.38C37.71,12.37,37.3,10.34,36.48,8.6z M26.2,18.83
	c-0.56,1.08-1.3,1.9-2.22,2.48c-0.94,0.59-2.03,0.99-3.28,1.2c-1.27,0.21-2.6,0.31-3.99,0.31H16.7l0,0c-1.52,0-2.75-1.16-2.79-2.6
	V9.82c0-1.03,0.16-1.77,0.44-2.2c0.13-0.29,1-0.62,2.58-0.62c0.04,0,0.08,0,0.13,0c1.58,0,3,0.11,4.27,0.32
	c1.25,0.21,2.29,0.59,3.13,1.13c0.83,0.54,1.46,1.28,1.9,2.27c0.44,0.98,0.67,2.26,0.67,3.85C27.04,16.35,26.75,17.77,26.2,18.83z
	 M0.31,0.8h0.02C0.31,0.79,0.3,0.78,0.28,0.77L0.31,0.8z"/>
<path class="st2" d="M200.11,8.6l-0.34,0.16L200.11,8.6c-0.82-1.74-1.99-3.2-3.49-4.36c-1.5-1.17-3.28-2.03-5.34-2.59
	c-2.05-0.57-4.32-0.85-6.79-0.85h-20.53c1.23,0.69,2.04,1.54,2.46,2.54c0.45,1.06,0.52,3.02,0.52,4.43v39.49
	c0.16,1.3,1.28,2.31,2.67,2.35h8.01V29.58h1.46c2.5,0,5.04-0.11,7.63-0.32c2.62-0.22,5.01-0.8,7.16-1.76
	c2.17-0.96,3.97-2.45,5.37-4.45c1.42-2.03,2.11-4.83,2.11-8.38C201.34,12.37,200.93,10.34,200.11,8.6z M189.82,18.83
	c-0.56,1.08-1.3,1.9-2.22,2.48c-0.94,0.59-2.03,0.99-3.28,1.2c-1.27,0.21-2.6,0.31-3.99,0.31h-0.01l0,0c-1.52,0-2.75-1.16-2.79-2.6
	V9.82c0-1.03,0.16-1.77,0.44-2.2c0.13-0.29,1-0.62,2.58-0.62c0.04,0,0.08,0,0.13,0c1.58,0,3,0.11,4.27,0.32
	c1.25,0.21,2.29,0.59,3.13,1.13c0.83,0.54,1.46,1.28,1.9,2.27c0.44,0.98,0.67,2.26,0.67,3.85
	C190.66,16.35,190.37,17.77,189.82,18.83z M163.93,0.8h0.02c-0.02-0.01-0.03-0.02-0.05-0.03L163.93,0.8z"/>
<path class="st2" d="M242.18,8.6l-0.34,0.16L242.18,8.6c-0.82-1.74-1.99-3.2-3.49-4.36c-1.5-1.17-3.28-2.03-5.34-2.59
	c-2.05-0.57-4.32-0.85-6.79-0.85h-20.53c1.23,0.69,2.04,1.54,2.46,2.54c0.45,1.06,0.52,3.02,0.52,4.43v39.49
	c0.15,1.3,1.28,2.31,2.67,2.35h8.01V29.58h1.45c2.5,0,5.04-0.11,7.63-0.32c2.62-0.22,5.01-0.8,7.16-1.76
	c2.17-0.96,3.97-2.45,5.37-4.45c1.42-2.03,2.11-4.83,2.11-8.38C243.41,12.37,243,10.34,242.18,8.6z M231.89,18.83
	c-0.56,1.08-1.3,1.9-2.22,2.48c-0.94,0.59-2.03,0.99-3.28,1.2c-1.27,0.21-2.6,0.31-3.99,0.31h-0.01l0,0c-1.52,0-2.75-1.16-2.79-2.6
	V9.82c0-1.03,0.16-1.77,0.44-2.2c0.13-0.29,1-0.62,2.58-0.62c0.04,0,0.08,0,0.13,0c1.58,0,3,0.11,4.27,0.32
	c1.25,0.21,2.29,0.59,3.13,1.13c0.83,0.54,1.46,1.28,1.9,2.27c0.44,0.98,0.67,2.26,0.67,3.85
	C232.73,16.35,232.44,17.77,231.89,18.83z M206,0.8h0.02c-0.02-0.01-0.03-0.02-0.05-0.03L206,0.8z"/>
<path class="st2" d="M51.96,35.42l-5.63,14.14h-6.15c-1.44-0.07-2.2-1.21-1.69-2.63l14.77-36.46c0.09-0.26,0.23-0.6,0.39-1
	s0.31-0.8,0.45-1.22c0.14-0.41,0.25-0.83,0.34-1.24S54.57,6.26,54.57,6c0-0.69-0.1-1.5-0.31-2.45c-0.18-0.83-0.76-1.54-1.83-2.15
	L51.2,0.7h9.3c1.55,0,2.81,0.32,3.74,1c0.91,0.66,1.63,1.61,2.16,2.8l-0.34,0.15l0.35-0.14l18.59,45h-8.64
	c-1.44-0.09-2.94-1.16-3.5-2.5l-7.73-19.34l-5.05-12.89l-5.3,13.7L51.96,35.42z"/>
<path class="st2" d="M146.59,35.42l5.63,14.14h6.15c1.44-0.07,2.2-1.21,1.69-2.63l-14.77-36.46c-0.09-0.26-0.23-0.6-0.39-1
	c-0.16-0.4-0.31-0.8-0.45-1.22c-0.14-0.41-0.25-0.83-0.34-1.24s-0.13-0.75-0.13-1.01c0-0.69,0.1-1.5,0.31-2.45
	c0.18-0.83,0.76-1.54,1.83-2.15l1.23-0.7h-9.3c-1.55,0-2.81,0.32-3.74,1c-0.91,0.66-1.62,1.61-2.16,2.8l0.34,0.15l-0.35-0.14
	l-18.59,45h8.64c1.44-0.09,2.94-1.16,3.5-2.5l7.73-19.34l5.05-12.89l5.3,13.7L146.59,35.42z"/>
<path class="st3" d="M65.14,27.65"/>
</svg>
