<?xml version="1.0" encoding="utf-8"?>
<!-- Generator: Adobe Illustrator 24.2.3, SVG Export Plug-In . SVG Version: 6.00 Build 0)  -->
<svg version="1.1" id="Layer_1" xmlns="http://www.w3.org/2000/svg" xmlns:xlink="http://www.w3.org/1999/xlink" x="0px" y="0px"
	 viewBox="0 0 248.06 55.42" style="enable-background:new 0 0 248.06 55.42;" xml:space="preserve">
<style type="text/css">
	.st0{fill:#1890FF;}
	.st1{fill:#3E4252;}
</style>
<g>
	<path class="st0" d="M175.5,10.35c-1.4,0-2.61-0.51-3.63-1.53c-1.02-1.02-1.53-2.23-1.53-3.63c0-1.4,0.51-2.61,1.53-3.63
		c1.02-1.02,2.23-1.53,3.63-1.53c1.4,0,2.61,0.51,3.63,1.53c1.02,1.02,1.53,2.23,1.53,3.63c0,1.4-0.51,2.61-1.53,3.63
		C178.11,9.84,176.9,10.35,175.5,10.35z"/>
	<path class="st1" d="M14.97,45.36c-3.12,0-5.81-0.62-8.05-1.86c-2.24-1.24-3.95-2.9-5.14-4.99c-1.18-2.08-1.77-4.38-1.77-6.91
		v-17.6h8.23v17.6c0,1.24,0.3,2.37,0.9,3.39c0.6,1.02,1.41,1.83,2.43,2.43c1.02,0.6,2.15,0.9,3.39,0.9c1.24,0,2.37-0.3,3.39-0.9
		c1.02-0.6,1.83-1.41,2.43-2.43c0.6-1.02,0.9-2.15,0.9-3.39v-17.6h8.23v17.6c0,2.52-0.59,4.83-1.77,6.91
		c-1.18,2.08-2.88,3.75-5.1,4.99C20.83,44.74,18.13,45.36,14.97,45.36z"/>
	<path class="st1" d="M80.43,45.36c-2.8,0-5.25-0.72-7.33-2.16c-2.08-1.44-3.69-3.37-4.84-5.8c-1.14-2.42-1.71-5.09-1.71-8.02
		c0-3,0.65-5.73,1.95-8.17c1.3-2.44,3.17-4.37,5.62-5.8c2.44-1.42,5.36-2.13,8.77-2.13c3.44,0,6.35,0.72,8.71,2.16
		c2.36,1.44,4.16,3.38,5.41,5.83c1.24,2.44,1.86,5.15,1.86,8.11v15.26h-8.23v-5.1h-0.12c-0.6,1.08-1.35,2.06-2.25,2.94
		c-0.9,0.88-1.99,1.58-3.27,2.1C83.71,45.1,82.19,45.36,80.43,45.36z M82.77,38.34c1.6,0,2.98-0.4,4.14-1.2
		c1.16-0.8,2.05-1.89,2.67-3.27c0.62-1.38,0.93-2.91,0.93-4.6c0-1.68-0.31-3.19-0.93-4.53c-0.62-1.34-1.51-2.41-2.67-3.21
		c-1.16-0.8-2.54-1.2-4.14-1.2c-1.64,0-3.05,0.4-4.23,1.2c-1.18,0.8-2.08,1.87-2.7,3.21c-0.62,1.34-0.93,2.85-0.93,4.53
		c0,1.68,0.31,3.21,0.93,4.6c0.62,1.38,1.52,2.47,2.7,3.27C79.72,37.94,81.13,38.34,82.77,38.34z"/>
	<path class="st1" d="M103.78,44.64v-17.6c0-2.52,0.59-4.82,1.77-6.91c1.18-2.08,2.89-3.74,5.14-4.99c2.24-1.24,4.93-1.86,8.05-1.86
		c3.16,0,5.86,0.62,8.08,1.86c2.22,1.24,3.92,2.9,5.1,4.99c1.18,2.08,1.77,4.38,1.77,6.91v17.6h-8.23v-17.6
		c0-1.24-0.3-2.37-0.9-3.39c-0.6-1.02-1.41-1.83-2.43-2.43c-1.02-0.6-2.15-0.9-3.39-0.9c-1.24,0-2.37,0.3-3.39,0.9
		c-1.02,0.6-1.83,1.41-2.43,2.43c-0.6,1.02-0.9,2.15-0.9,3.39v17.6H103.78z"/>
	<path class="st1" d="M141.62,44.64v-7.03h14.96c0.48,0,0.91-0.1,1.29-0.3c0.38-0.2,0.68-0.48,0.9-0.84
		c0.22-0.36,0.33-0.76,0.33-1.2c0-0.48-0.11-0.9-0.33-1.26c-0.22-0.36-0.52-0.65-0.9-0.87c-0.38-0.22-0.81-0.33-1.29-0.33h-5.77
		c-1.96,0-3.73-0.31-5.32-0.93c-1.58-0.62-2.84-1.62-3.78-3c-0.94-1.38-1.41-3.19-1.41-5.44c0-1.72,0.43-3.29,1.29-4.72
		c0.86-1.42,2.02-2.56,3.48-3.42c1.46-0.86,3.07-1.29,4.84-1.29h14.35v7.03h-13.57c-0.6,0-1.13,0.2-1.59,0.6
		c-0.46,0.4-0.69,0.92-0.69,1.56c0,0.64,0.22,1.17,0.66,1.59c0.44,0.42,0.98,0.63,1.62,0.63h5.77c2.2,0,4.1,0.33,5.71,0.99
		c1.6,0.66,2.84,1.69,3.72,3.09c0.88,1.4,1.32,3.24,1.32,5.53c0,1.76-0.44,3.37-1.32,4.84c-0.88,1.46-2.06,2.62-3.54,3.48
		c-1.48,0.86-3.14,1.29-4.98,1.29H141.62z"/>
	<path class="st1" d="M171.35,44.64V14.01h8.29v30.63H171.35z"/>
	<path class="st1" d="M218.11,44.64v-17.6c0-2.52,0.59-4.82,1.77-6.91c1.18-2.08,2.89-3.74,5.14-4.99c2.24-1.24,4.92-1.86,8.05-1.86
		c3.16,0,5.86,0.62,8.08,1.86c2.22,1.24,3.92,2.9,5.1,4.99c1.18,2.08,1.77,4.38,1.77,6.91v17.6h-8.23v-17.6
		c0-1.24-0.3-2.37-0.9-3.39c-0.6-1.02-1.41-1.83-2.43-2.43c-1.02-0.6-2.15-0.9-3.39-0.9c-1.24,0-2.37,0.3-3.39,0.9
		c-1.02,0.6-1.83,1.41-2.43,2.43c-0.6,1.02-0.9,2.15-0.9,3.39v17.6H218.11z"/>
	<g>
		<path class="st1" d="M35.27,20.59c1.35-2.5,3.23-4.43,5.63-5.81c2.4-1.37,5.15-2.06,8.24-2.06c3.99,0,7.29,1,9.9,2.99
			c2.61,1.99,4.36,4.79,5.25,8.39h-8.77c-0.46-1.39-1.25-2.49-2.35-3.28c-1.1-0.79-2.47-1.19-4.09-1.19c-2.32,0-4.16,0.84-5.52,2.53
			c-1.35,1.68-2.03,4.07-2.03,7.17c0,3.06,0.68,5.43,2.03,7.11c1.35,1.68,3.19,2.53,5.52,2.53c3.29,0,5.44-1.47,6.44-4.41h8.77
			c-0.89,3.48-2.65,6.25-5.28,8.3c-2.63,2.05-5.92,3.08-9.87,3.08c-3.1,0-5.85-0.69-8.24-2.06c-2.4-1.37-4.28-3.31-5.63-5.81
			c-1.36-2.5-2.03-5.41-2.03-8.74C33.24,26,33.92,23.09,35.27,20.59z"/>
	</g>
	<path class="st1" d="M198.87,13.68c-8.13,0-14.68,6.78-14.3,14.99c0.34,7.29,6.33,13.29,13.62,13.62
		c8.21,0.38,14.99-6.17,14.99-14.3V13.68H198.87z M205.52,27.99c0,3.78-3.15,6.83-6.97,6.65c-3.39-0.16-6.18-2.95-6.34-6.34
		c-0.18-3.82,2.87-6.97,6.65-6.97h6.66V27.99z"/>
	<g>
		<path class="st1" d="M199.74,55.22c9.42,0,12.73-4.08,13.3-4.9l-5.71-4.48c0,0-0.09,0.1,0,0c-0.02,0.02-1.48,2.07-7.59,2.07
			s-7.57-2.05-7.59-2.07c0.09,0.1,0,0,0,0l-5.71,4.48C187,51.15,190.31,55.22,199.74,55.22z"/>
	</g>
</g>
</svg>
