<?xml version="1.0" encoding="utf-8"?>
<!-- Generator: Adobe Illustrator 24.2.3, SVG Export Plug-In . SVG Version: 6.00 Build 0)  -->
<svg version="1.1" id="Layer_1" xmlns="http://www.w3.org/2000/svg" xmlns:xlink="http://www.w3.org/1999/xlink" x="0px" y="0px"
	 viewBox="0 0 150 90" style="enable-background:new 0 0 150 90;" xml:space="preserve">
<style type="text/css">
	.st0{fill:#E95456;}
	.st1{fill:#4AA8DE;}
	.st2{opacity:0.3;fill:#FFFFFF;enable-background:new    ;}
	.st3{fill:#FFFFFF;}
	.st4{fill:#888888;}
	.st5{opacity:0.3;fill:#888888;enable-background:new    ;}
</style>
<g>
	<g>
		<path d="M59.1,6.3v12.3c0,1.4-0.3,2.6-0.9,3.7c-0.6,1-1.5,1.9-2.7,2.4c-1.2,0.6-2.6,0.8-4.2,0.8c-2.4,0-4.3-0.6-5.7-1.9
			c-1.3-1.2-2-3-2-5.1V6.3h4v11.6c0,1.5,0.3,2.5,0.9,3.2c0.6,0.7,1.6,1,2.9,1c1.3,0,2.3-0.3,2.9-1s0.9-1.8,0.9-3.2V6.3H59.1z"/>
		<path d="M78.9,15.6c0,3.1-0.9,5.5-2.7,7.2s-4.3,2.5-7.7,2.5h-5.4v-19h6c3.1,0,5.5,0.8,7.2,2.5S78.9,12.6,78.9,15.6z M74.7,15.7
			c0-4.1-1.8-6.1-5.4-6.1h-2.1v12.3h1.7C72.8,21.9,74.7,19.8,74.7,15.7z"/>
		<path d="M98,15.6c0,3.1-0.9,5.5-2.7,7.2c-1.8,1.7-4.3,2.5-7.7,2.5h-5.4v-19h5.9c3.1,0,5.5,0.8,7.2,2.5S98,12.6,98,15.6z
			 M93.8,15.7c0-4.1-1.8-6.1-5.4-6.1h-2.1v12.3H88C91.9,21.9,93.8,19.8,93.8,15.7z"/>
		<path d="M113,25.2l-1.4-4.5h-6.9l-1.4,4.5H99l6.7-19h4.9l6.7,19H113z M110.7,17.3c-1.3-4.1-2-6.4-2.2-6.9s-0.3-1-0.3-1.3
			c-0.3,1.1-1.1,3.8-2.4,8.2C105.8,17.3,110.7,17.3,110.7,17.3z"/>
		<path d="M126.5,25.2h-4V9.6h-5.2V6.3h14.3v3.4h-5.2C126.5,9.6,126.5,25.2,126.5,25.2z"/>
		<path d="M145.7,25.2l-1.4-4.5h-6.9l-1.4,4.5h-4.3l6.7-19h4.9l6.7,19H145.7z M143.3,17.3c-1.3-4.1-2-6.4-2.1-6.9
			c-0.2-0.5-0.3-1-0.3-1.3c-0.3,1.1-1.1,3.8-2.4,8.2C138.4,17.3,143.3,17.3,143.3,17.3z"/>
	</g>
	<g>
		<path class="st0" d="M20.4,22H10.1c-1.9,0-3.5-1.6-3.5-3.5v-6.2V8.8V1.4H0v17.4c0,5.5,4.4,9.9,9.9,9.9h10.7V22
			C20.5,22,20.4,22,20.4,22z"/>
		<path class="st1" d="M17.2,1.4h-3.3v6.8h3.2c2,0,3.6,1.6,3.6,3.6v10v0.1h6.7V11.5C27.4,5.9,22.8,1.4,17.2,1.4z"/>
		<rect x="20.7" y="15.3" class="st2" width="6.6" height="6.6"/>
		<rect y="1.4" class="st2" width="6.6" height="6.6"/>
		<path class="st1" d="M11,12.3L11,12.3L11,12.3c0,2.9,2.4,5.3,5.3,5.3l0,0l0,0C16.3,14.7,13.9,12.3,11,12.3z"/>
	</g>
</g>
<g>
	<g>
		<path class="st3" d="M59.1,36.3v12.3c0,1.4-0.3,2.6-0.9,3.7c-0.6,1-1.5,1.9-2.7,2.4c-1.2,0.6-2.6,0.8-4.2,0.8
			c-2.4,0-4.3-0.6-5.7-1.9c-1.3-1.2-2-3-2-5.1V36.3h4v11.6c0,1.5,0.3,2.5,0.9,3.2c0.6,0.7,1.6,1,2.9,1c1.3,0,2.3-0.3,2.9-1
			c0.6-0.7,0.9-1.8,0.9-3.2V36.3H59.1z"/>
		<path class="st3" d="M78.9,45.6c0,3.1-0.9,5.5-2.7,7.2s-4.3,2.5-7.7,2.5h-5.4v-19h6c3.1,0,5.5,0.8,7.2,2.5
			C78,40.4,78.9,42.7,78.9,45.6z M74.7,45.7c0-4.1-1.8-6.1-5.4-6.1h-2.1V52h1.7C72.8,52,74.7,49.9,74.7,45.7z"/>
		<path class="st3" d="M98,45.6c0,3.1-0.9,5.5-2.7,7.2c-1.8,1.7-4.3,2.5-7.7,2.5h-5.4v-19h5.9c3.1,0,5.5,0.8,7.2,2.5
			S98,42.7,98,45.6z M93.8,45.7c0-4.1-1.8-6.1-5.4-6.1h-2.1V52H88C91.9,52,93.8,49.9,93.8,45.7z"/>
		<path class="st3" d="M113,55.3l-1.4-4.5h-6.9l-1.4,4.5H99l6.7-19h4.9l6.7,19H113z M110.7,47.4c-1.3-4.1-2-6.4-2.2-6.9
			s-0.3-1-0.3-1.3c-0.3,1.1-1.1,3.8-2.4,8.2C105.8,47.4,110.7,47.4,110.7,47.4z"/>
		<path class="st3" d="M126.5,55.3h-4V39.7h-5.2v-3.3h14.3v3.3h-5.2C126.5,39.7,126.5,55.3,126.5,55.3z"/>
		<path class="st3" d="M145.7,55.3l-1.4-4.5h-6.9l-1.4,4.5h-4.3l6.7-19h4.9l6.7,19H145.7z M143.3,47.4c-1.3-4.1-2-6.4-2.1-6.9
			c-0.2-0.5-0.3-1-0.3-1.3c-0.3,1.1-1.1,3.8-2.4,8.2C138.4,47.4,143.3,47.4,143.3,47.4z"/>
	</g>
	<g>
		<path class="st0" d="M20.4,52.1H10.1c-1.9,0-3.5-1.6-3.5-3.5v-6.2v-3.6v-7.4H0v17.4c0,5.5,4.4,9.9,9.9,9.9h10.7V52
			C20.5,52.1,20.4,52.1,20.4,52.1z"/>
		<path class="st1" d="M17.2,31.4h-3.3v6.8h3.2c2,0,3.6,1.6,3.6,3.6v10v0.1h6.7V41.6C27.4,36,22.8,31.4,17.2,31.4z"/>
		<rect x="20.7" y="45.4" class="st2" width="6.6" height="6.6"/>
		<rect y="31.4" class="st2" width="6.6" height="6.6"/>
		<path class="st1" d="M11,42.4L11,42.4L11,42.4c0,2.9,2.4,5.3,5.3,5.3l0,0l0,0C16.3,44.8,13.9,42.4,11,42.4z"/>
	</g>
</g>
<g>
	<g>
		<path class="st4" d="M59.1,66.2v12.3c0,1.4-0.3,2.6-0.9,3.7c-0.6,1-1.5,1.9-2.7,2.4c-1.2,0.6-2.6,0.8-4.2,0.8
			c-2.4,0-4.3-0.6-5.7-1.9c-1.3-1.2-2-3-2-5.1V66.2h4v11.6c0,1.5,0.3,2.5,0.9,3.2c0.6,0.7,1.6,1,2.9,1c1.3,0,2.3-0.3,2.9-1
			c0.6-0.7,0.9-1.8,0.9-3.2V66.2H59.1z"/>
		<path class="st4" d="M78.9,75.6c0,3.1-0.9,5.5-2.7,7.2c-1.8,1.7-4.3,2.5-7.7,2.5h-5.4v-19h6c3.1,0,5.5,0.8,7.2,2.5
			C78,70.4,78.9,72.7,78.9,75.6z M74.7,75.7c0-4.1-1.8-6.1-5.4-6.1h-2.1V82h1.7C72.8,82,74.7,79.9,74.7,75.7z"/>
		<path class="st4" d="M98,75.6c0,3.1-0.9,5.5-2.7,7.2c-1.8,1.7-4.3,2.5-7.7,2.5h-5.4v-19h5.9c3.1,0,5.5,0.8,7.2,2.5
			C97,70.5,98,72.7,98,75.6z M93.8,75.7c0-4.1-1.8-6.1-5.4-6.1h-2.1V82H88C91.9,82,93.8,79.9,93.8,75.7z"/>
		<path class="st4" d="M113,85.2l-1.4-4.5h-6.9l-1.4,4.5H99l6.7-19h4.9l6.7,19H113z M110.7,77.4c-1.3-4.1-2-6.4-2.2-6.9
			s-0.3-1-0.3-1.3c-0.3,1.1-1.1,3.8-2.4,8.2C105.8,77.4,110.7,77.4,110.7,77.4z"/>
		<path class="st4" d="M126.5,85.2h-4V69.7h-5.2v-3.3h14.3v3.3h-5.2C126.5,69.7,126.5,85.2,126.5,85.2z"/>
		<path class="st4" d="M145.7,85.2l-1.4-4.5h-6.9l-1.4,4.5h-4.3l6.7-19h4.9l6.7,19H145.7z M143.3,77.4c-1.3-4.1-2-6.4-2.1-6.9
			c-0.2-0.5-0.3-1-0.3-1.3c-0.3,1.1-1.1,3.8-2.4,8.2C138.4,77.4,143.3,77.4,143.3,77.4z"/>
	</g>
	<g>
		<path class="st4" d="M20.4,82.1H10.1c-1.9,0-3.5-1.6-3.5-3.5v-6.2v-3.6v-7.4H0v17.4c0,5.5,4.4,9.9,9.9,9.9h10.7V82
			C20.5,82.1,20.4,82.1,20.4,82.1z"/>
		<path class="st4" d="M17.2,61.4h-3.3v6.8h3.2c2,0,3.6,1.6,3.6,3.6v10v0.1h6.7V71.6C27.4,66,22.8,61.4,17.2,61.4z"/>
		<rect x="20.7" y="75.4" class="st5" width="6.6" height="6.6"/>
		<rect y="61.4" class="st5" width="6.6" height="6.6"/>
		<path class="st4" d="M11,72.4L11,72.4L11,72.4c0,2.9,2.4,5.3,5.3,5.3l0,0l0,0C16.3,74.8,13.9,72.4,11,72.4z"/>
	</g>
</g>
</svg>
