<?xml version="1.0" encoding="utf-8"?>
<!-- Generator: Adobe Illustrator 24.2.3, SVG Export Plug-In . SVG Version: 6.00 Build 0)  -->
<svg version="1.1" id="Layer_1" xmlns="http://www.w3.org/2000/svg" xmlns:xlink="http://www.w3.org/1999/xlink" x="0px" y="0px"
	 viewBox="0 0 244 52" style="enable-background:new 0 0 244 52;" xml:space="preserve">
<style type="text/css">
	.st0{fill:#D5D4D3;}
</style>
<g>
	<path class="st0" d="M50,36.2h16.3l-1.8-4.3l0,0c-0.5-1.5-2.2-2.6-3.7-2.7h-8"/>
	<path class="st0" d="M148.6,36.2h-16.3l1.8-4.3l0,0c0.5-1.5,2.2-2.6,3.7-2.7h8"/>
	<path class="st0" d="M112.5,1.6l-12,18.2L90.7,4.5c-0.6-1-1.4-1.7-2.4-2.2s-2.2-0.7-3.8-0.7H73.9h-0.1c1.6,0.7,2.9,1.6,3.9,2.5
		c1.1,1,2.1,2.7,3.3,4.5l13.1,19.6V48c0.1,1.3,1.2,2.4,2.6,2.5h8V28.2l17.7-26.5h-9.9V1.6z"/>
	<path class="st0" d="M36.5,9.4l-0.3,0.2L36.5,9.4c-0.8-1.7-2-3.2-3.5-4.4s-3.3-2-5.3-2.6c-2.1-0.6-4.3-0.8-6.8-0.8H0.4
		c1.3,0.7,2.1,1.6,2.5,2.6c0.5,1,0.5,3,0.5,4.4v39.5c0.2,1.3,1.3,2.3,2.7,2.4h8v-20h1.5c2.5,0,5-0.1,7.6-0.3c2.6-0.2,5-0.8,7.2-1.8
		s4-2.5,5.4-4.4c1.4-2,2.1-4.8,2.1-8.4C37.8,13.2,37.4,11.2,36.5,9.4z M26.3,19.6c-0.6,1.1-1.3,1.9-2.2,2.5c-0.9,0.6-2,1-3.3,1.2
		s-2.6,0.3-4,0.3l0,0l0,0c-1.5,0-2.8-1.2-2.8-2.6V10.6c0-1,0.2-1.8,0.4-2.2c0.1-0.3,1-0.6,2.6-0.6H17c1.6,0,3,0.1,4.3,0.3
		c1.3,0.2,2.3,0.6,3.1,1.1c0.8,0.5,1.5,1.3,1.9,2.3s0.7,2.3,0.7,3.8C27.2,17.2,26.9,18.6,26.3,19.6z M0.4,1.6L0.4,1.6L0.4,1.6
		L0.4,1.6z"/>
	<path class="st0" d="M200.1,9.4l-0.3,0.2L200.1,9.4c-0.8-1.7-2-3.2-3.5-4.4s-3.3-2-5.3-2.6c-2.1-0.6-4.3-0.8-6.8-0.8H164
		c1.2,0.7,2,1.5,2.5,2.5c0.4,1.1,0.5,3,0.5,4.4V48c0.2,1.3,1.3,2.3,2.7,2.4h8v-20h1.5c2.5,0,5-0.1,7.6-0.3c2.6-0.2,5-0.8,7.2-1.8
		s4-2.5,5.4-4.4c1.4-2,2.1-4.8,2.1-8.4C201.4,13.2,200.9,11.2,200.1,9.4z M189.8,19.6c-0.6,1.1-1.3,1.9-2.2,2.5s-2,1-3.3,1.2
		s-2.6,0.3-4,0.3l0,0l0,0c-1.5,0-2.8-1.2-2.8-2.6V10.6c0-1,0.2-1.8,0.4-2.2c0.1-0.3,1-0.6,2.6-0.6h0.1c1.6,0,3,0.1,4.3,0.3
		c1.3,0.2,2.3,0.6,3.1,1.1s1.5,1.3,1.9,2.3s0.7,2.3,0.7,3.8C190.8,17.2,190.4,18.6,189.8,19.6z M163.9,1.6L163.9,1.6
		C164.1,1.6,163.9,1.6,163.9,1.6L163.9,1.6z"/>
	<path class="st0" d="M242.3,9.4l-0.3,0.2L242.3,9.4c-0.8-1.7-2-3.2-3.5-4.4s-3.3-2-5.3-2.6c-2.1-0.6-4.3-0.8-6.8-0.8h-20.5
		c1.2,0.7,2,1.5,2.5,2.5c0.4,1.1,0.5,3,0.5,4.4V48c0.2,1.3,1.3,2.3,2.7,2.4h8v-20h1.5c2.5,0,5-0.1,7.6-0.3c2.6-0.2,5-0.8,7.2-1.8
		s4-2.5,5.4-4.4c1.4-2,2.1-4.8,2.1-8.4C243.4,13.2,243.1,11.2,242.3,9.4z M231.9,19.6c-0.6,1.1-1.3,1.9-2.2,2.5s-2,1-3.3,1.2
		s-2.6,0.3-4,0.3l0,0l0,0c-1.5,0-2.8-1.2-2.8-2.6V10.6c0-1,0.2-1.8,0.4-2.2c0.1-0.3,1-0.6,2.6-0.6h0.1c1.6,0,3,0.1,4.3,0.3
		c1.3,0.2,2.3,0.6,3.1,1.1s1.5,1.3,1.9,2.3s0.7,2.3,0.7,3.8C232.8,17.2,232.6,18.6,231.9,19.6z M206.1,1.6L206.1,1.6L206.1,1.6
		L206.1,1.6z"/>
	<path class="st0" d="M52,36.2l-5.6,14.1h-6.2c-1.4-0.1-2.2-1.2-1.7-2.6l14.8-36.5c0.1-0.3,0.2-0.6,0.4-1S54,9.4,54.2,9
		c0.1-0.4,0.2-0.8,0.3-1.2c0.1-0.4,0.1-0.7,0.1-1c0-0.7-0.1-1.5-0.3-2.4c-0.2-0.8-0.8-1.5-1.8-2.2l-1.2-0.7h9.3c1.6,0,2.8,0.3,3.7,1
		c1,0.7,1.7,1.6,2.2,2.8l-0.3,0.2l0.3-0.1l18.6,45h-8.6c-1.5-0.2-3-1.2-3.5-2.6l-7.7-19.3l-5-12.9L55,29.3L52,36.2z"/>
	<path class="st0" d="M146.6,36.2l5.6,14.1h6.2c1.4-0.1,2.2-1.2,1.7-2.6l-14.8-36.5c-0.1-0.3-0.2-0.6-0.4-1s-0.3-0.8-0.4-1.2
		c-0.1-0.4-0.2-0.8-0.3-1.2c-0.1-0.4-0.1-0.7-0.1-1c0-0.7,0.1-1.5,0.3-2.4c0.2-0.8,0.8-1.5,1.8-2.2l1.2-0.7h-9.3
		c-1.6,0-2.8,0.3-3.7,1s-1.6,1.6-2.2,2.8l0.3,0.2l-0.3-0.1l-18.6,45h8.6c1.4-0.1,2.9-1.2,3.5-2.5l7.7-19.3l5-12.9l5.3,13.7
		L146.6,36.2z"/>
</g>
</svg>
