<?xml version="1.0" encoding="utf-8"?>
<!-- Generator: Adobe Illustrator 24.2.3, SVG Export Plug-In . SVG Version: 6.00 Build 0)  -->
<svg version="1.1" id="Layer_1" xmlns="http://www.w3.org/2000/svg" xmlns:xlink="http://www.w3.org/1999/xlink" x="0px" y="0px"
	 viewBox="0 0 185 33" style="enable-background:new 0 0 185 33;" xml:space="preserve">
<style type="text/css">
	.st0{fill:#A7AFB9;}
</style>
<g>
	<path class="st0" d="M13.5,1.7H0.8v29.8H9v-8.2h4.5c6.3,0,11.1-4.6,11.1-10.8C24.5,6.2,19.8,1.7,13.5,1.7z M12.5,16.1H9V8.9h3.5
		c2.2,0,3.6,1.5,3.6,3.6S14.7,16.1,12.5,16.1z"/>
	<path class="st0" d="M52.3,12.2c0-6.2-4.7-10.6-11.1-10.6H28.3v29.8h8.2v-9.1h3l4.8,9.1h9.2l-5.9-10.8
		C50.5,18.9,52.3,15.9,52.3,12.2z M40.3,15.5h-3.8V9h3.8c2.3,0,3.6,1.4,3.6,3.2C43.9,14.1,42.5,15.5,40.3,15.5z"/>
	<path class="st0" d="M104.7,12.9c-2.8-0.7-5.1-1.3-5.1-3c0-1.4,1.4-2,2.9-2c1.7,0,3.1,0.9,3.1,2.8h8.2c0-6.1-4.1-9.7-11.3-9.7
		c-7,0-11.4,3.4-11.4,9.2c0,6.8,5.5,8.1,9.8,9.2c2.8,0.7,5.2,1.2,5.2,3.1c0,1.6-1.6,2.5-3.4,2.5c-1.9,0-3.5-1-3.5-3.2h-8.5
		c0,6.5,4.7,10.4,12,10.4c6.9,0,11.9-3.4,11.9-9.9C114.8,15.5,109.1,14.1,104.7,12.9z"/>
	<polygon class="st0" points="127.3,19.9 137.1,19.9 137.1,13.2 127.3,13.2 127.3,8.8 138.2,8.8 138.2,1.7 119.1,1.7 119.1,31.5 
		138.6,31.5 138.6,24.4 127.3,24.4 	"/>
	<polygon class="st0" points="151.6,1.7 143.3,1.7 143.3,31.5 162.2,31.5 162.2,24 151.6,24 	"/>
	<polygon class="st0" points="174.2,24 174.2,1.7 165.9,1.7 165.9,31.5 184.9,31.5 184.9,24 	"/>
	<path class="st0" d="M71.6,0.7c-9.1,0-15.6,6.7-15.6,16s6.5,16,15.6,16l0,0c9.1,0,15.6-6.7,15.6-16S80.7,0.7,71.6,0.7z M71.6,24.9
		L71.6,24.9c-4.3,0-7.5-3.5-7.5-8.2s3.2-8.2,7.5-8.2s7.4,3.4,7.4,8.2S75.9,24.9,71.6,24.9z"/>
</g>
</svg>
