<?xml version="1.0" encoding="utf-8"?>
<!-- Generator: Adobe Illustrator 24.2.3, SVG Export Plug-In . SVG Version: 6.00 Build 0)  -->
<svg version="1.1" id="Layer_1" xmlns="http://www.w3.org/2000/svg" xmlns:xlink="http://www.w3.org/1999/xlink" x="0px" y="0px"
	 viewBox="0 0 186 52" style="enable-background:new 0 0 186 52;" xml:space="preserve">
<style type="text/css">
	.st0{fill:#CDCCCC;}
	.st1{fill-rule:evenodd;clip-rule:evenodd;fill:#CDCCCC;}
</style>
<g>
	<path class="st0" d="M16.2,35.3c-9.4-0.6-9.4-9.2-9.4-9.2v-16H1v15.7c0.1,9.5,6.7,13.7,6.7,13.7C18.5,46.5,26.3,39,26.3,39V26
		C25.6,36.1,16.2,35.3,16.2,35.3z"/>
	<path class="st0" d="M33.1,10.1h-6.8v32.4h6.8V10.1z"/>
	<path class="st0" d="M64.7,14.2c-2.9-2.8-6.8-4.5-11.2-4.5C44.5,9.7,37,17,37,26.1c0,9,7.3,16.4,16.5,16.4c4.4,0,8.4-1.7,11.3-4.5
		v4.5H71V1.6h-6.3C64.7,1.6,64.7,14.2,64.7,14.2z M53.4,35.8c-5.4,0-9.8-4.4-9.8-9.8s4.4-9.8,9.8-9.8s9.8,4.4,9.8,9.8
		S58.8,35.8,53.4,35.8z"/>
	<path class="st1" d="M82.5,37.9c2.9,2.8,6.8,4.4,11.2,4.4c9,0,16.4-7.3,16.4-16.3S102.7,9.8,93.7,9.8c-4.4,0-8.3,1.7-11.2,4.5V9.9
		h-6.2v40.4h6.3L82.5,37.9z M93.6,16.5c5.4,0,9.8,4.4,9.8,9.8S99,36,93.6,36s-9.8-4.4-9.8-9.8C83.9,20.8,88.2,16.5,93.6,16.5z
		 M140.6,14.4c-2.9-2.8-6.8-4.4-11.2-4.4c-9,0-16.4,7.3-16.4,16.3s7.3,16.3,16.4,16.3c4.4,0,8.3-1.7,11.2-4.5v4.4h6.2v-32h-6.3
		L140.6,14.4z M129.4,35.9c-5.4,0-9.8-4.4-9.8-9.8s4.4-9.8,9.8-9.8c5.4,0,9.8,4.4,9.8,9.8S134.8,35.9,129.4,35.9z M167.8,34
		l9.5-24.1h7.7l-18.4,40.4h-8.4l4.8-9.9L149.9,10h8L167.8,34z"/>
</g>
</svg>
